<?xml version="1.0" encoding="UTF-8"?>
<svg xmlns="http://www.w3.org/2000/svg" xmlns:xlink="http://www.w3.org/1999/xlink" width="1100" height="310" viewBox="0 0 1100 310">
<defs><marker id="arrow" markerWidth="10" markerHeight="10" refX="8" refY="3" orient="auto"><path d="M0,0 L0,6 L9,3 z" fill="#334155"/></marker><style>.box{stroke-width:2}.blue{fill:#e0f2fe;stroke:#0369a1}.amber{fill:#fef3c7;stroke:#b45309}.green{fill:#dcfce7;stroke:#15803d}.rose{fill:#ffe4e6;stroke:#be123c}.label{font:600 18px Arial,sans-serif;fill:#0f172a;text-anchor:middle;dominant-baseline:middle}.small{font:16px Arial,sans-serif;fill:#475569;text-anchor:middle}.arrow{stroke:#334155;stroke-width:2.5;fill:none}.dashed{stroke-dasharray:7 6}</style></defs>
<rect x="25" y="110" width="160" height="72" rx="12" class="box blue"/><text x="105" y="153" class="label">Sheet series</text><path d="M 185 146 L 235 146" class="arrow" marker-end="url(#arrow)"/><rect x="240" y="110" width="190" height="72" rx="12" class="box amber"/><text x="335" y="142" class="label">Obtain control</text><text x="335" y="165" class="label">embedded or printed</text><path d="M 430 146 L 480 146" class="arrow" marker-end="url(#arrow)"/><rect x="485" y="110" width="145" height="72" rx="12" class="box blue"/><text x="557.5" y="153" class="label">Warp each sheet</text><path d="M 630 146 L 680 146" class="arrow" marker-end="url(#arrow)"/><rect x="685" y="90" width="190" height="112" rx="12" class="box amber"/><text x="780" y="131" class="label">Does the check share</text><text x="780" y="154" class="label">an assumption</text><text x="780" y="177" class="label">with the warp?</text><path d="M 875 118 L 945 65" class="arrow" marker-end="url(#arrow)"/><path d="M 875 174 L 945 230" class="arrow" marker-end="url(#arrow)"/><text x="912" y="80" class="small">yes</text><text x="912" y="214" class="small">no</text><rect x="950" y="30" width="140" height="72" rx="12" class="box rose"/><text x="1020" y="62" class="label">Residual may be</text><text x="1020" y="85" class="label">blind</text><rect x="950" y="200" width="140" height="72" rx="12" class="box green"/><text x="1020" y="232" class="label">Independent</text><text x="1020" y="255" class="label">diagnostic</text>
</svg>