<?xml version="1.0" encoding="UTF-8"?>
<svg xmlns="http://www.w3.org/2000/svg" xmlns:xlink="http://www.w3.org/1999/xlink" width="1000" height="430" viewBox="0 0 1000 430">
<defs><marker id="arrow" markerWidth="10" markerHeight="10" refX="8" refY="3" orient="auto"><path d="M0,0 L0,6 L9,3 z" fill="#334155"/></marker><style>.box{stroke-width:2}.blue{fill:#e0f2fe;stroke:#0369a1}.amber{fill:#fef3c7;stroke:#b45309}.green{fill:#dcfce7;stroke:#15803d}.rose{fill:#ffe4e6;stroke:#be123c}.label{font:600 18px Arial,sans-serif;fill:#0f172a;text-anchor:middle;dominant-baseline:middle}.small{font:16px Arial,sans-serif;fill:#475569;text-anchor:middle}.arrow{stroke:#334155;stroke-width:2.5;fill:none}.dashed{stroke-dasharray:7 6}</style></defs>
<text x="500" y="34" class="label">Free seam displacement: 717 seams before the fix, 715 after</text><rect x="322" y="52" width="16" height="16" rx="3" fill="#eb6834"/><text x="392" y="61" class="small">faulty</text><rect x="462" y="52" width="16" height="16" rx="3" fill="#2a78d6"/><text x="534" y="61" class="small">corrected</text><line x1="90" y1="340" x2="950" y2="340" stroke="#b3b1a7" stroke-width="1.5"/><rect x="115" y="148" width="58" height="192" rx="4" fill="#eb6834"/><rect x="177" y="90" width="58" height="250" rx="4" fill="#2a78d6"/><text x="144" y="133" class="small">377</text><text x="206" y="75" class="small">492</text><text x="175" y="368" class="small">0–10 m</text><rect x="283" y="264" width="58" height="76" rx="4" fill="#eb6834"/><rect x="345" y="229" width="58" height="111" rx="4" fill="#2a78d6"/><text x="312" y="249" class="small">149</text><text x="374" y="214" class="small">218</text><text x="343" y="368" class="small">10–50 m</text><rect x="451" y="339" width="58" height="1" rx="4" fill="#eb6834"/><rect x="513" y="337" width="58" height="3" rx="4" fill="#2a78d6"/><text x="480" y="324" class="small">2</text><text x="542" y="322" class="small">5</text><text x="511" y="368" class="small">50–100 m</text><rect x="619" y="293" width="58" height="47" rx="4" fill="#eb6834"/><rect x="681" y="340" width="58" height="0" rx="4" fill="#2a78d6"/><text x="648" y="278" class="small">92</text><text x="710" y="325" class="small">0</text><text x="679" y="368" class="small">100–300 m</text><rect x="787" y="291" width="58" height="49" rx="4" fill="#eb6834"/><rect x="849" y="340" width="58" height="0" rx="4" fill="#2a78d6"/><text x="816" y="276" class="small">97</text><text x="878" y="325" class="small">0</text><text x="847" y="368" class="small">over 300 m</text><text x="500" y="398" class="small">Every seam over 100 m disappears under the corrected datum: 189 of them, leaving none.</text>
</svg>